<?xml version="1.0" standalone="no"?>
<!DOCTYPE svg PUBLIC "-//W3C//DTD SVG 20010904//EN"
 "http://www.w3.org/TR/2001/REC-SVG-20010904/DTD/svg10.dtd">
<svg version="1.0" xmlns="http://www.w3.org/2000/svg"
 width="358.000000pt" height="607.000000pt" viewBox="0 0 358.000000 607.000000"
 preserveAspectRatio="xMidYMid meet">

<g transform="translate(0.000000,607.000000) scale(0.100000,-0.100000)"
fill="#000000" stroke="none">
<path d="M1502 6055 c-741 -113 -1317 -628 -1474 -1318 -19 -84 -21 -130 -24
-507 -4 -377 -2 -426 15 -531 55 -321 217 -628 456 -860 61 -59 381 -376 712
-705 l602 -598 698 694 c384 382 718 719 743 750 245 301 375 717 344 1097 -5
69 -5 157 0 225 27 329 -64 679 -252 968 -252 389 -663 664 -1147 766 -104 22
-150 26 -350 29 -164 3 -257 0 -323 -10z m565 -914 c194 -40 410 -134 558
-243 91 -67 217 -195 279 -281 91 -128 186 -347 186 -428 0 -38 -50 -189 -86
-261 -144 -289 -433 -534 -755 -642 -160 -54 -270 -70 -464 -70 -201 0 -308
17 -472 75 -409 145 -720 465 -819 842 -13 53 -13 63 2 120 87 317 340 612
659 768 155 75 284 112 500 143 72 10 314 -3 412 -23z"/>
<path d="M1622 4891 c-123 -31 -215 -84 -313 -181 -148 -147 -207 -301 -196
-514 9 -187 64 -312 197 -446 54 -54 98 -87 155 -117 117 -61 188 -77 330 -77
105 0 130 4 200 28 119 41 181 80 275 175 136 137 193 275 193 471 0 123 -17
203 -68 305 -68 138 -180 246 -327 315 -128 60 -302 76 -446 41z m118 -246
c13 -14 34 -25 46 -25 12 0 36 11 52 25 17 14 33 25 36 25 3 0 15 -18 26 -40
18 -35 25 -40 53 -39 17 0 41 4 52 8 29 12 45 -6 45 -50 0 -43 9 -51 65 -59
43 -6 45 -11 30 -76 -8 -34 -2 -42 53 -75 l33 -19 -26 -34 c-28 -37 -32 -77
-9 -96 8 -8 19 -21 25 -31 8 -15 3 -22 -30 -39 -46 -23 -58 -50 -41 -91 18
-42 7 -59 -38 -59 -46 0 -62 -14 -62 -54 0 -52 -12 -62 -58 -48 -51 16 -68 8
-93 -39 -11 -22 -23 -39 -27 -39 -5 0 -19 11 -32 25 -30 32 -64 32 -106 0
l-33 -26 -25 40 c-29 46 -53 56 -89 40 -38 -17 -57 -5 -57 35 0 43 -22 66 -64
66 -42 0 -62 21 -47 49 22 40 13 69 -29 96 -22 14 -40 28 -40 31 0 3 11 19 25
36 14 16 25 38 25 48 0 10 -11 32 -25 48 -33 40 -32 47 13 69 33 16 37 22 36
53 0 19 -3 46 -5 60 -4 23 -1 25 37 28 51 4 72 25 76 77 2 34 6 39 23 36 11
-2 38 -4 60 -5 37 -1 41 2 58 37 22 44 35 46 67 12z"/>
<path d="M1780 4441 c-12 -8 -9 -14 14 -32 78 -62 71 -179 -15 -236 -32 -21
-47 -25 -88 -21 -28 3 -62 14 -80 27 -34 25 -36 20 -20 -44 14 -56 79 -131
134 -156 60 -28 149 -25 212 6 175 88 176 346 1 436 -43 22 -137 34 -158 20z"/>
<path d="M1457 740 c-12 -44 -13 -45 -60 -48 l-47 -3 0 -45 c0 -42 1 -44 30
-44 35 0 36 -4 10 -70 -11 -28 -20 -73 -20 -100 l0 -50 70 0 70 0 0 -35 0 -35
-80 0 -80 0 0 -45 0 -45 80 0 80 0 0 -50 0 -50 45 0 45 0 0 50 0 50 60 0 60 0
0 45 0 45 -60 0 -60 0 0 35 0 35 50 0 50 0 0 45 0 45 -50 0 -50 0 0 55 0 55
-40 0 -40 0 0 -55 c0 -52 -1 -55 -26 -55 -17 0 -24 4 -21 13 3 6 14 36 23 65
l18 52 98 0 98 0 0 45 0 45 -81 0 -81 0 5 28 c3 15 8 34 12 43 5 14 -2 18 -44
20 l-51 4 -13 -45z"/>
<path d="M120 730 l0 -50 -55 0 -55 0 0 -45 0 -45 55 0 55 0 0 -45 c0 -48 0
-48 -90 -57 -28 -3 -35 -23 -25 -74 5 -27 10 -34 23 -30 9 3 34 8 55 12 35 6
37 5 37 -21 0 -47 -17 -65 -60 -65 -35 0 -40 -3 -40 -22 1 -62 8 -68 77 -68
55 0 67 4 88 25 22 21 25 33 25 99 l0 74 40 7 c25 4 40 12 40 21 0 11 9 9 35
-8 19 -13 35 -27 35 -31 0 -5 -28 -38 -62 -73 l-62 -65 37 -37 38 -37 52 55
c29 30 60 66 70 79 l16 24 36 -27 c20 -16 38 -26 40 -25 2 2 14 23 28 47 l24
44 8 -49 c13 -86 43 -123 102 -123 61 0 83 37 98 161 5 49 4 57 -12 62 -10 2
-25 8 -34 11 -14 6 -18 -3 -24 -59 -4 -43 -11 -65 -18 -62 -14 4 -24 104 -26
250 l-1 97 -80 0 -80 0 0 50 0 50 -50 0 -50 0 0 -50 0 -50 -45 0 -45 0 0 -45
0 -45 46 0 46 0 -7 -37 c-4 -21 -8 -39 -10 -41 -2 -2 -15 4 -30 14 -23 15 -28
16 -35 3 -5 -8 -16 -23 -24 -34 -15 -20 -15 -19 -16 7 0 25 -2 26 -40 21 l-40
-6 0 37 c0 35 1 36 40 36 l40 0 0 45 0 45 -40 0 -40 0 0 50 0 50 -45 0 -45 0
0 -50z m460 -235 c0 -52 -2 -95 -5 -95 -3 0 -24 12 -46 26 -37 23 -41 29 -35
56 3 17 6 48 6 69 0 39 0 39 40 39 l40 0 0 -95z"/>
<path d="M1005 748 c-4 -18 -22 -73 -42 -121 l-34 -88 23 -49 c17 -37 29 -49
46 -50 19 0 22 -5 22 -40 l0 -40 -40 0 -40 0 0 -45 0 -45 40 0 40 0 0 -55 c0
-31 -7 -72 -15 -92 -15 -34 -14 -38 7 -70 13 -18 26 -33 30 -33 5 0 30 16 56
34 l48 35 24 -40 c14 -21 28 -39 31 -39 4 0 23 20 43 45 36 44 37 44 56 25 47
-47 77 -54 246 -58 l161 -4 7 28 c4 16 9 37 12 47 5 16 -6 17 -133 17 -155 0
-194 8 -235 47 l-28 27 0 163 0 163 -70 0 -70 0 0 -50 c0 -47 2 -50 25 -50
l25 0 0 -105 c0 -93 -3 -109 -22 -135 -25 -34 -38 -31 -38 11 0 35 -3 35 -41
8 l-29 -20 0 50 0 51 40 0 40 0 0 45 0 45 -40 0 -40 0 0 40 c0 38 2 40 30 40
29 0 30 2 30 45 l0 45 -70 0 c-38 0 -70 2 -70 5 0 2 5 16 12 30 10 23 16 25
80 25 l68 0 0 45 0 45 -51 0 c-56 0 -53 -5 -33 66 5 18 0 22 -26 28 -59 11
-68 8 -75 -26z"/>
<path d="M1238 768 c-21 -6 -38 -15 -38 -21 0 -20 42 -162 51 -171 11 -12 89
11 89 26 0 19 -54 178 -60 177 -3 -1 -22 -6 -42 -11z"/>
<path d="M2440 541 c0 -220 -1 -240 -17 -245 -10 -2 -58 -7 -108 -11 -49 -3
-103 -8 -120 -12 l-30 -5 23 24 c12 13 22 27 22 30 0 13 -110 89 -120 83 -6
-4 -10 6 -10 24 0 30 1 31 50 31 l50 0 0 45 0 45 -50 0 -50 0 0 49 c0 53 9 61
78 61 35 0 37 6 22 62 -10 33 -14 37 -38 32 -15 -2 -80 -8 -144 -13 -65 -4
-120 -10 -122 -12 -3 -2 -2 -23 1 -47 l6 -42 48 0 49 0 0 -45 0 -45 -60 0 -60
0 0 -45 0 -45 50 0 c28 0 50 -5 50 -11 0 -12 -53 -120 -82 -167 -19 -31 -20
-38 -9 -88 8 -34 17 -54 24 -51 7 2 29 32 50 68 l37 64 0 -133 0 -132 50 0 50
0 0 147 0 147 28 -27 c15 -15 33 -27 40 -27 7 0 12 -16 12 -40 0 -46 -15 -44
158 -27 l122 13 0 -93 0 -93 55 0 55 0 0 100 0 100 51 0 50 0 -3 52 -3 52 -47
-3 -48 -3 0 236 0 236 -55 0 -55 0 0 -239z"/>
<path d="M2880 710 l0 -70 -40 0 -40 0 0 -45 0 -45 40 0 41 0 -3 -72 -3 -72
-42 -9 -43 -8 0 -56 0 -55 45 6 45 7 0 -90 0 -91 -41 0 -42 0 7 -37 c3 -21 6
-44 6 -52 0 -10 15 -12 65 -9 102 6 109 17 115 180 l5 132 33 7 c18 4 35 9 38
11 2 3 1 26 -2 52 l-7 48 -33 -7 -34 -6 0 61 0 60 35 0 c35 0 35 0 35 45 0 45
0 45 -35 45 l-35 0 0 70 0 70 -55 0 -55 0 0 -70z"/>
<path d="M3260 725 l0 -55 -90 0 -90 0 0 -50 0 -50 90 0 90 0 0 -45 0 -45 -90
0 -90 0 0 -45 c0 -25 4 -45 9 -45 5 0 11 -10 15 -23 3 -13 30 -60 60 -105 l55
-82 -47 -24 c-26 -13 -72 -31 -102 -41 -30 -10 -56 -19 -58 -20 -3 -3 42 -80
54 -94 4 -5 189 75 219 95 17 11 33 6 122 -38 57 -28 109 -48 117 -45 14 6 61
86 54 92 -2 1 -28 10 -58 20 -48 15 -107 41 -119 51 -2 2 12 21 32 44 59 69
97 151 97 209 l0 51 -85 0 -85 0 0 45 0 45 105 0 105 0 0 50 0 50 -105 0 -105
0 0 55 0 55 -50 0 -50 0 0 -55z m143 -366 c-24 -41 -82 -109 -94 -109 -10 0
-99 117 -99 131 0 5 48 9 106 9 l105 0 -18 -31z"/>
<path d="M2245 680 c-25 -26 -27 -32 -15 -43 8 -8 41 -38 73 -67 l58 -53 34
33 c19 19 35 37 35 42 0 10 -134 118 -147 118 -5 0 -22 -14 -38 -30z"/>
<path d="M2212 477 l-32 -33 70 -57 c38 -31 74 -57 79 -57 11 0 61 58 61 71 0
9 -129 109 -141 109 -3 0 -19 -15 -37 -33z"/>
<path d="M642 200 c-18 -4 -36 -11 -39 -14 -6 -6 51 -139 69 -160 5 -7 92 9
106 20 8 6 -80 164 -91 163 -6 -1 -27 -5 -45 -9z"/>
<path d="M41 120 c-18 -44 -33 -83 -34 -87 -2 -6 96 -36 98 -30 18 37 55 129
60 149 7 29 11 27 -68 43 -21 4 -27 -4 -56 -75z"/>
<path d="M447 191 c-21 -3 -38 -10 -38 -16 0 -5 12 -42 26 -82 27 -72 27 -72
58 -66 82 16 78 9 44 96 -16 42 -35 76 -41 76 -6 -1 -28 -5 -49 -8z"/>
<path d="M234 183 l-21 -4 21 -81 21 -80 48 5 c26 2 50 7 53 10 3 3 -4 40 -16
81 -22 74 -24 76 -54 75 -17 -1 -41 -4 -52 -6z"/>
</g>
</svg>
