<?xml version="1.0" standalone="no"?><!DOCTYPE svg PUBLIC "-//W3C//DTD SVG 1.1//EN" "http://www.w3.org/Graphics/SVG/1.1/DTD/svg11.dtd"><svg t="1559032215572" class="icon" style="" viewBox="0 0 1024 1024" version="1.1" xmlns="http://www.w3.org/2000/svg" p-id="3706" xmlns:xlink="http://www.w3.org/1999/xlink" width="200" height="200"><defs><style type="text/css"></style></defs><path d="M288 352h448V291.52a3.52 3.52 0 0 0-3.52-3.52H291.52a3.52 3.52 0 0 0-3.52 3.52V352z m480 64H288v316.48c0 1.92 1.6 3.52 3.52 3.52H384a32 32 0 0 1 0 64H291.52A67.52 67.52 0 0 1 224 732.48V291.52A67.52 67.52 0 0 1 291.52 224h440.96A67.52 67.52 0 0 1 800 291.52V384a32 32 0 0 1-32 32z m-41.504 265.696a96 96 0 0 0-128.192-128.192l128.192 128.192z m-45.248 44.992l-127.936-127.936a96 96 0 0 0 127.968 127.968zM640 800a160 160 0 1 1 0-320 160 160 0 0 1 0 320z" p-id="3707"></path></svg>