<?xml version="1.0" standalone="no"?><!DOCTYPE svg PUBLIC "-//W3C//DTD SVG 1.1//EN" "http://www.w3.org/Graphics/SVG/1.1/DTD/svg11.dtd"><svg t="1559126014215" class="icon" style="" viewBox="0 0 1024 1024" version="1.1" xmlns="http://www.w3.org/2000/svg" p-id="2037" xmlns:xlink="http://www.w3.org/1999/xlink" width="200" height="200"><defs><style type="text/css"></style></defs><path d="M901.975852 930.906765 120.016421 930.906765c-30.844495 0-55.850006-25.00858-55.850006-55.855122L64.166415 232.728482c0-30.844495 25.00551-55.853076 55.850006-55.853076l27.930119 0 0 27.927049c0 30.845519 25.00551 55.851029 55.853076 55.851029l27.926026 0c30.849612 0 55.855122-25.00551 55.855122-55.851029l0-27.927049 55.853076 0 0 27.927049c0 30.845519 25.00858 55.851029 55.855122 55.851029l27.927049 0c30.845519 0 55.854099-25.00551 55.854099-55.851029l0-27.927049 55.854099 0 0 27.927049c0 30.845519 25.007557 55.851029 55.855122 55.851029l27.926026 0c30.845519 0 55.854099-25.00551 55.854099-55.851029l0-27.927049 55.855122 0 0 27.927049c0 30.845519 25.00551 55.851029 55.853076 55.851029l27.927049 0c30.846542 0 55.854099-25.00551 55.854099-55.851029l0-27.927049 27.927049 0c30.846542 0 55.854099 25.00858 55.854099 55.853076l0 642.323161C957.829951 905.898185 932.823418 930.906765 901.975852 930.906765zM734.414579 428.217828 287.579741 428.217828c-15.424294 0-27.927049 12.501732-27.927049 27.926026 0 15.425318 12.502755 27.927049 27.927049 27.927049l446.834838 0c15.421224 0 27.926026-12.501732 27.926026-27.927049C762.340605 440.71956 749.836827 428.217828 734.414579 428.217828zM734.414579 567.855122 287.579741 567.855122c-15.424294 0-27.927049 12.502755-27.927049 27.92398 0 15.425318 12.502755 27.928073 27.927049 27.928073l446.834838 0c15.421224 0 27.926026-12.502755 27.926026-27.928073C762.340605 580.357877 749.836827 567.855122 734.414579 567.855122zM734.414579 707.4873 287.579741 707.4873c-15.424294 0-27.927049 12.504802-27.927049 27.928073 0 15.424294 12.502755 27.927049 27.927049 27.927049l446.834838 0c15.421224 0 27.926026-12.502755 27.926026-27.927049C762.340605 719.992101 749.836827 707.4873 734.414579 707.4873zM804.231691 232.728482c-23.134907 0-41.891086-18.754133-41.891086-41.891086l0-55.854099c0-23.13593 18.756179-41.891086 41.891086-41.891086 23.13593 0 41.891086 18.754133 41.891086 41.891086l0 55.854099C846.121753 213.973326 827.367621 232.728482 804.231691 232.728482zM608.741321 232.728482c-23.13593 0-41.893132-18.754133-41.893132-41.891086l0-55.854099c0-23.13593 18.757203-41.891086 41.893132-41.891086 23.13593 0 41.891086 18.754133 41.891086 41.891086l0 55.854099C650.632407 213.973326 631.878275 232.728482 608.741321 232.728482zM413.250952 232.728482c-23.13593 0-41.888016-18.754133-41.888016-41.891086l0-55.854099c0-23.13593 18.752086-41.891086 41.888016-41.891086 23.137976 0 41.891086 18.754133 41.891086 41.891086l0 55.854099C455.141014 213.973326 436.387905 232.728482 413.250952 232.728482zM217.762629 232.728482c-23.134907 0-41.889039-18.754133-41.889039-41.891086l0-55.854099c0-23.13593 18.754133-41.891086 41.889039-41.891086 23.13593 0 41.891086 18.754133 41.891086 41.891086l0 55.854099C259.652691 213.973326 240.898559 232.728482 217.762629 232.728482z" p-id="2038"></path></svg>